<?xml version="1.0" encoding="utf-8"?>
<!-- Generator: Adobe Illustrator 29.7.1, SVG Export Plug-In . SVG Version: 9.03 Build 0)  -->
<svg version="1.0" xmlns="http://www.w3.org/2000/svg" xmlns:xlink="http://www.w3.org/1999/xlink" x="0px" y="0px"
	 viewBox="0 0 765 563.6" style="enable-background:new 0 0 765 563.6;" xml:space="preserve">
<style type="text/css">
	.st0{fill:#EAE2D6;}
	.st1{display:none;}
	.st2{display:inline;fill:none;stroke:#DF531E;stroke-miterlimit:10;}
</style>
<g id="logotypes">
	<path class="st0" d="M339,304.4c-26.2-0.5-48.3,21.1-47.8,46.5c-0.5,25.4,21.5,47.3,47.6,46.7c26.2,0.5,48.7-21.3,48.2-46.7
		C387.6,325.5,365.2,304,339,304.4z M339,375.3c-13.5,0-23.1-10.3-23.1-24.2c0-14.3,9.6-24.5,23.1-24.5c13.2,0,23.1,10.6,23.1,24.5
		C362.1,365,352.2,375.3,339,375.3z M242.1,304.4c-9.9,0-18.6,3.6-24.5,9.6v-53.6h-24.4v135.3h24.4v-52c0-10.3,7-17.3,17-17.3
		c9.9,0,16.6,7,16.6,17.3v52h24.2v-55.4C275.3,318.6,262.3,304.4,242.1,304.4z M549.4,317.5c-6-8.5-16.4-13.2-28.7-13.2
		c-24.9,0-43.3,19.8-43.3,46.5c0,26.7,18.4,46.9,43.3,46.9c10.8,0,20.2-3.8,26.7-10.8v41.1h24.4V306.3h-22.4V317.5z M525.2,375.6
		c-13,0-23.1-9.9-23.1-24.5c0-15,9.9-24.7,23.1-24.7c12.3,0,22.6,8.5,22.6,24.5C547.8,366.8,537.5,375.6,525.2,375.6z M441.3,342.1
		l-8.7-3.6c-7-2.9-9.4-4.5-9.4-7.9c0-4.1,3.6-6.3,9.6-6.3c7.4,0,14.1,2.9,20,8.5l12.3-15c-8.1-8.8-18.8-13.3-32.1-13.3
		c-19.5,0-32.8,9.9-32.8,26.7c0,13.2,7.9,20.6,24.4,27.2l9.6,4c6.7,2.9,9.2,4.3,9.2,8.1c0,4.9-4.9,7.4-11.4,7.4
		c-8.8,0-17.3-4-25.1-12.1l-12.3,14.8c8.1,10.8,21.3,17.3,37,17.3c10.1,0,18.4-2.5,24.9-7.6c6.7-5.1,9.9-12.1,9.9-20.9
		C466.4,356.1,458.7,349.1,441.3,342.1z M504.3,204.4l-121.8-68.9l-121.8,68.9H161v9.9h99.6l121.9,69l121.9-69H604v-9.9H504.3z
		 M382.5,146.9l82.1,46.5l-82.1-23.2l-82.1,23.2L382.5,146.9z M382.5,180.6l84.4,23.8H298.1L382.5,180.6z M382.5,271.9l-82.1-46.5
		l82.1,23.2l82.1-23.2L382.5,271.9z M382.5,238.3l-84.7-23.9h169.5L382.5,238.3z"/>
</g>
<g id="savespace" class="st1">
	<rect x="-0.2" y="0.5" class="st2" width="765" height="563"/>
</g>
</svg>
